<svg xmlns="http://www.w3.org/2000/svg" width="148.06" height="92.556" viewBox="0 0 148.06 92.556">
  <g id="Grupo_13096" data-name="Grupo 13096" transform="translate(-135.89 -118.566)">
    <g id="Grupo_1" data-name="Grupo 1" transform="translate(179.079 118.566)">
      <path id="Caminho_1" data-name="Caminho 1" d="M321.657,133.539c-.062.021-11.977,4.826-11.977,4.826a1.676,1.676,0,0,1-2.537-1.255l-.328-6.033a.589.589,0,0,0-1.04-.331l-4.7,4.721a1.491,1.491,0,0,1-2.607-.576l-5.45-16.223s-.03-.1-.072-.1c-.062,0-.062.1-.062.1s0-.1-.056-.1-.079.1-.079.1l-5.45,16.222a1.491,1.491,0,0,1-2.607.576l-4.7-4.721a.589.589,0,0,0-1.04.331l-.328,6.033a1.676,1.676,0,0,1-2.537,1.255s-11.915-4.8-11.977-4.826a.663.663,0,0,0-.756.89l8.622,22.6a1.961,1.961,0,0,0,1.829,1.479h38.15a1.961,1.961,0,0,0,1.829-1.479l8.623-22.6A.664.664,0,0,0,321.657,133.539Z" transform="translate(-263.328 -118.566)" fill="#fff" fill-rule="evenodd"/>
      <path id="Caminho_2" data-name="Caminho 2" d="M326.189,241.017a1.274,1.274,0,0,0-1.149-.723H285.3a1.275,1.275,0,0,0-1.149.723l-2.116,4.405a1.275,1.275,0,0,0,1.15,1.827h43.974a1.275,1.275,0,0,0,1.149-1.827Z" transform="translate(-275.609 -199.04)" fill="#fff" fill-rule="evenodd"/>
    </g>
    <g id="Grupo_2" data-name="Grupo 2" transform="translate(135.89 181.922)">
      <path id="Caminho_3" data-name="Caminho 3" d="M135.89,306.794a.5.5,0,0,1,.5-.5h7.185a5.7,5.7,0,0,1,5.758,5.653,5.864,5.864,0,0,1-3.909,5.362l3.619,6.709a.5.5,0,0,1-.449.766h-2.061a.486.486,0,0,1-.422-.238l-3.513-7h-3.989v6.736a.519.519,0,0,1-.5.5h-1.717a.5.5,0,0,1-.5-.5Zm7.475,8.479A3.281,3.281,0,0,0,146.589,312a3.238,3.238,0,0,0-3.223-3.144h-4.7v6.419Z" transform="translate(-135.89 -306.028)" fill="#fff"/>
      <path id="Caminho_4" data-name="Caminho 4" d="M194.791,305.512a9.51,9.51,0,1,1-9.483,9.536A9.493,9.493,0,0,1,194.791,305.512Zm0,16.378a6.868,6.868,0,1,0-6.842-6.842A6.865,6.865,0,0,0,194.791,321.89Z" transform="translate(-168.56 -305.512)" fill="#fff"/>
      <path id="Caminho_5" data-name="Caminho 5" d="M250.954,315.881l-6.181-8.823a.489.489,0,0,1,.422-.766h1.955a.524.524,0,0,1,.422.238l4.782,6.736,4.781-6.736a.57.57,0,0,1,.423-.238h1.981a.489.489,0,0,1,.423.766l-6.261,8.8v8.427a.519.519,0,0,1-.5.5h-1.744a.5.5,0,0,1-.5-.5Z" transform="translate(-207.817 -306.028)" fill="#fff"/>
      <path id="Caminho_6" data-name="Caminho 6" d="M284.267,323.581l8.11-17.778a.617.617,0,0,1,.449-.291h.264a.618.618,0,0,1,.449.291l8.057,17.778a.466.466,0,0,1-.449.687h-1.665a.616.616,0,0,1-.607-.4l-1.638-3.619H288.6c-.528,1.215-1.083,2.4-1.611,3.619a.664.664,0,0,1-.607.4h-1.665A.466.466,0,0,1,284.267,323.581Zm11.966-5.6-3.249-7.238h-.132l-3.222,7.238Z" transform="translate(-233.947 -305.512)" fill="#fff"/>
      <path id="Caminho_7" data-name="Caminho 7" d="M347.972,306.794a.5.5,0,0,1,.5-.5h1.744a.52.52,0,0,1,.5.5v15.532h7.159a.5.5,0,0,1,.5.5v1.453a.5.5,0,0,1-.5.5h-9.4a.5.5,0,0,1-.5-.5Z" transform="translate(-276.097 -306.028)" fill="#fff"/>
      <path id="Caminho_8" data-name="Caminho 8" d="M412.69,305.512a9.17,9.17,0,0,1,6.392,2.457.491.491,0,0,1,.027.739l-1.162,1.189c-.185.238-.422.238-.661,0a7.16,7.16,0,0,0-4.569-1.77,6.858,6.858,0,0,0,.025,13.71,7.07,7.07,0,0,0,4.544-1.743.483.483,0,0,1,.634-.026l1.215,1.189a.5.5,0,0,1-.025.713,9.068,9.068,0,0,1-6.419,2.563,9.51,9.51,0,1,1,0-19.019Z" transform="translate(-312.578 -305.512)" fill="#fff"/>
      <path id="Caminho_9" data-name="Caminho 9" d="M464.495,306.794a.521.521,0,0,1,.5-.5h1.743a.521.521,0,0,1,.5.5v17.487a.52.52,0,0,1-.5.5H465a.52.52,0,0,1-.5-.5Z" transform="translate(-353.13 -306.028)" fill="#fff"/>
      <path id="Caminho_10" data-name="Caminho 10" d="M488.944,308.775h-4.3a.5.5,0,0,1-.5-.5v-1.479a.5.5,0,0,1,.5-.5H496a.5.5,0,0,1,.5.5v1.479a.5.5,0,0,1-.5.5h-4.3v15.506a.52.52,0,0,1-.5.5h-1.743a.52.52,0,0,1-.5-.5Z" transform="translate(-366.115 -306.028)" fill="#fff"/>
      <path id="Caminho_11" data-name="Caminho 11" d="M533.728,315.881l-6.182-8.823a.489.489,0,0,1,.422-.766h1.956a.524.524,0,0,1,.422.238l4.781,6.736,4.781-6.736a.57.57,0,0,1,.424-.238h1.98a.489.489,0,0,1,.424.766l-6.261,8.8v8.427a.519.519,0,0,1-.5.5h-1.744a.5.5,0,0,1-.5-.5Z" transform="translate(-394.758 -306.028)" fill="#fff"/>
    </g>
    <g id="Grupo_3" data-name="Grupo 3" transform="translate(167.016 205.538)">
      <path id="Caminho_12" data-name="Caminho 12" d="M228.369,382.581a2.385,2.385,0,0,1-.635-1.661,2.255,2.255,0,0,1,.6-1.573,2.067,2.067,0,0,1,1.483-.6,2.465,2.465,0,0,1,1.2.327c.077.047.107.041.119,0l.047-.172c.012-.036.024-.036.078-.036s.065.012.065.095c0,.113.119.985.148,1.151.006.03,0,.053-.024.059l-.089.024c-.03.006-.042,0-.059-.047a2.3,2.3,0,0,0-.463-.736,1.373,1.373,0,0,0-1.032-.457c-1.062,0-1.489.943-1.483,1.809a2.375,2.375,0,0,0,.57,1.525,1.317,1.317,0,0,0,1.139.5,1.814,1.814,0,0,0,1.465-.753c.018-.03.03-.036.048-.018l.077.059c.018.012.03.024.012.054a2.126,2.126,0,0,1-1.768,1A2.065,2.065,0,0,1,228.369,382.581Z" transform="translate(-227.734 -377.543)" fill="#fff"/>
      <path id="Caminho_13" data-name="Caminho 13" d="M242.986,380.519c0-.38-.011-1.009-.017-1.115-.012-.155-.042-.214-.22-.214h-.278c-.036,0-.042-.03-.042-.059V379c0-.03.006-.041.042-.041.065,0,.278.017.771.017.576,0,.825-.017.878-.017s.054.017.054.047v.137c0,.03-.012.047-.059.047h-.357c-.184,0-.207.059-.207.232,0,.077-.018.973-.018,1.388v.51c0,.1,0,1.382.018,1.626.13.012,1.305.024,1.489,0,.35-.053.707-.765.789-1,.012-.023.024-.036.048-.023l.095.035c.018.012.018.018.012.054s-.255,1.02-.291,1.181c-.077-.006-.54-.012-1.068-.012s-1.11-.006-1.43-.006c-.231,0-.4.006-.528.006s-.19.012-.231.012-.048-.012-.048-.042v-.148c0-.03.006-.042.042-.042h.285c.219,0,.255-.083.255-.16,0-.113.017-1.59.017-1.952Z" transform="translate(-237.421 -377.683)" fill="#fff"/>
      <path id="Caminho_14" data-name="Caminho 14" d="M256.215,383.142a1.08,1.08,0,0,1-.706-.8,6.17,6.17,0,0,1-.1-1.442v-1.412c0-.208-.041-.3-.225-.3h-.279c-.035,0-.041-.012-.041-.053v-.131c0-.036.006-.047.053-.047s.35.017.813.017.747-.017.812-.017c.048,0,.054.012.054.035v.155c0,.029-.006.041-.048.041h-.3a.267.267,0,0,0-.285.243c-.006.053-.012.469-.012.771v.392c0,.315.024,1.068.03,1.258a1.421,1.421,0,0,0,.189.754,1.107,1.107,0,0,0,.944.427,1.265,1.265,0,0,0,.89-.326,1.477,1.477,0,0,0,.308-1.044v-1.27c0-.451-.012-.795-.029-.943a.265.265,0,0,0-.267-.261h-.261c-.036,0-.042-.018-.042-.047V379c0-.03.006-.041.042-.041.059,0,.332.017.73.017s.6-.017.653-.017.059.023.059.041v.13c0,.036-.006.059-.035.059h-.243c-.22,0-.238.166-.255.237s-.012.9-.012.985-.012,1.121-.03,1.353a1.54,1.54,0,0,1-.5,1.145,1.586,1.586,0,0,1-1.115.356A2.212,2.212,0,0,1,256.215,383.142Z" transform="translate(-245.673 -377.683)" fill="#fff"/>
      <path id="Caminho_15" data-name="Caminho 15" d="M270.718,380.6c0-.22-.012-.943-.018-1.051-.018-.344-.113-.356-.386-.356h-.184c-.036,0-.047-.012-.047-.041V379c0-.03.011-.041.047-.041.095,0,.362.017.789.017.189,0,.546-.017.753-.017a2.385,2.385,0,0,1,1.051.16.832.832,0,0,1,.456.807c0,.587-.261.736-.724.979l.018.012a1.2,1.2,0,0,1,.961,1.175,1.16,1.16,0,0,1-.456.89,2.124,2.124,0,0,1-1.133.214c-.41,0-.641-.018-.89-.018-.3,0-.647.018-.759.018-.072,0-.083-.012-.083-.036v-.154c0-.03.012-.042.054-.042h.285c.184,0,.214-.071.237-.261.018-.136.03-.919.03-1.406Zm.522.231a2.821,2.821,0,0,0,.315.012,1.392,1.392,0,0,0,.748-.155.859.859,0,0,0,.332-.712.739.739,0,0,0-.29-.624,1.445,1.445,0,0,0-.813-.2.945.945,0,0,0-.2.006.108.108,0,0,0-.084.106c-.006.119-.012.635-.012,1.128Zm0,.57v.819c0,.546.13.789.623.789a.862.862,0,0,0,.956-.943.934.934,0,0,0-.593-.932,2.206,2.206,0,0,0-.8-.1h-.19Z" transform="translate(-255.731 -377.683)" fill="#fff"/>
      <path id="Caminho_16" data-name="Caminho 16" d="M284.787,380.9c.047,0,.682-.024.753-.036.173-.029.219-.077.273-.261a1.412,1.412,0,0,0,.047-.291.038.038,0,0,1,.042-.041l.148.006a.036.036,0,0,1,.036.047c-.018.1-.018.587-.018.676,0,.208.024.493.035.617a.041.041,0,0,1-.035.047l-.13.018c-.03.005-.042-.012-.048-.054-.012-.077-.048-.213-.065-.279a.28.28,0,0,0-.255-.232c-.279-.029-.689-.029-.783-.029v.368c0,.32.012.9.012,1.015.006.308.155.427.338.463a2.489,2.489,0,0,0,.44.041c.1,0,.4-.006.522-.018a1.135,1.135,0,0,0,.516-.207,5.5,5.5,0,0,0,.487-.623c.017-.03.035-.054.071-.036l.095.054c.03.018.03.036.012.083l-.314.872a.126.126,0,0,1-.131.089c-.03,0-.16-.006-.516-.012s-.932-.006-1.858-.006c-.219,0-.386.006-.5.006s-.2.012-.255.012c-.035,0-.053-.012-.053-.042v-.16c0-.024.018-.03.059-.03h.238c.272,0,.3-.041.3-.261v-1.987c0-.492-.012-1.234-.018-1.294-.024-.19-.083-.232-.3-.232h-.214c-.029,0-.047-.006-.047-.041v-.16c0-.018.012-.029.041-.029.131,0,.339.017.731.017h.261c.587,0,1.174-.006,1.762-.006.095,0,.207-.012.237-.012s.041.012.047.029c.024.083.285.9.3.955.006.024.006.041-.018.053l-.089.047c-.018.012-.042-.006-.048-.018a4.858,4.858,0,0,0-.593-.677.925.925,0,0,0-.451-.16l-1.056-.024Z" transform="translate(-264.699 -377.683)" fill="#fff"/>
      <path id="Caminho_17" data-name="Caminho 17" d="M307.906,380.454c0-.154-.018-1-.029-1.1-.018-.142-.1-.166-.255-.166h-.327c-.03,0-.047-.006-.047-.041v-.16c0-.024.017-.029.041-.029.078,0,.338.017.872.017.155,0,.748-.017.884-.017a2.791,2.791,0,0,1,1.929.534,1.914,1.914,0,0,1,.659,1.513,2.115,2.115,0,0,1-.587,1.561,2.344,2.344,0,0,1-1.846.629c-.374,0-.825-.018-1.092-.018-.516,0-.753.018-.837.018-.029,0-.041-.012-.041-.042V383c0-.024.018-.036.047-.036h.4c.112,0,.178-.047.19-.142.017-.125.041-1.46.041-1.923Zm.546.576c0,.077.006,1.086.012,1.454a.559.559,0,0,0,.1.332.819.819,0,0,0,.629.19,1.741,1.741,0,0,0,1.395-.641,2.175,2.175,0,0,0,.433-1.335,2.108,2.108,0,0,0-.487-1.311,1.988,1.988,0,0,0-1.49-.57,1.229,1.229,0,0,0-.474.059c-.083.053-.107.148-.113.279-.006.249-.006,1.027-.006,1.122Z" transform="translate(-280.289 -377.683)" fill="#fff"/>
      <path id="Caminho_18" data-name="Caminho 18" d="M324.651,380.9c.047,0,.682-.024.754-.036.172-.029.219-.077.273-.261a1.388,1.388,0,0,0,.047-.291.038.038,0,0,1,.042-.041l.148.006a.035.035,0,0,1,.036.047c-.018.1-.018.587-.018.676,0,.208.024.493.035.617a.041.041,0,0,1-.035.047l-.13.018c-.03.005-.042-.012-.048-.054-.012-.077-.048-.213-.065-.279a.28.28,0,0,0-.255-.232c-.279-.029-.689-.029-.784-.029v.368c0,.32.012.9.012,1.015.006.308.155.427.338.463a2.484,2.484,0,0,0,.439.041c.1,0,.4-.006.522-.018a1.136,1.136,0,0,0,.516-.207,5.463,5.463,0,0,0,.487-.623c.017-.03.035-.054.071-.036l.095.054c.03.018.03.036.012.083l-.314.872a.126.126,0,0,1-.13.089c-.03,0-.16-.006-.516-.012s-.932-.006-1.858-.006c-.219,0-.386.006-.5.006s-.2.012-.255.012c-.035,0-.053-.012-.053-.042v-.16c0-.024.018-.03.059-.03h.238c.272,0,.3-.041.3-.261v-1.987c0-.492-.012-1.234-.018-1.294-.024-.19-.083-.232-.3-.232h-.214c-.029,0-.047-.006-.047-.041v-.16c0-.018.012-.029.041-.029.13,0,.339.017.73.017h.261c.587,0,1.174-.006,1.762-.006.095,0,.207-.012.238-.012s.041.012.047.029c.024.083.285.9.3.955.006.024.006.041-.018.053l-.089.047c-.018.012-.042-.006-.048-.018a4.836,4.836,0,0,0-.593-.677.923.923,0,0,0-.451-.16l-1.056-.024Z" transform="translate(-291.053 -377.683)" fill="#fff"/>
      <path id="Caminho_19" data-name="Caminho 19" d="M346.711,380.6c0-.22-.012-.943-.018-1.051-.018-.344-.113-.356-.386-.356h-.184c-.036,0-.047-.012-.047-.041V379c0-.03.011-.041.047-.041.095,0,.362.017.789.017.189,0,.546-.017.754-.017a2.383,2.383,0,0,1,1.05.16.833.833,0,0,1,.457.807c0,.587-.261.736-.724.979l.018.012a1.2,1.2,0,0,1,.961,1.175,1.159,1.159,0,0,1-.457.89,2.123,2.123,0,0,1-1.133.214c-.409,0-.641-.018-.89-.018-.3,0-.647.018-.759.018-.072,0-.084-.012-.084-.036v-.154c0-.03.012-.042.054-.042h.285c.183,0,.213-.071.237-.261.018-.136.03-.919.03-1.406Zm.522.231a2.815,2.815,0,0,0,.315.012,1.389,1.389,0,0,0,.747-.155.859.859,0,0,0,.332-.712.738.738,0,0,0-.29-.624,1.446,1.446,0,0,0-.813-.2.946.946,0,0,0-.2.006.108.108,0,0,0-.083.106c-.006.119-.012.635-.012,1.128Zm0,.57v.819c0,.546.13.789.623.789a.862.862,0,0,0,.956-.943.934.934,0,0,0-.593-.932,2.207,2.207,0,0,0-.8-.1h-.19Z" transform="translate(-305.97 -377.683)" fill="#fff"/>
      <path id="Caminho_20" data-name="Caminho 20" d="M360.783,380.9c.047,0,.682-.024.754-.036.172-.029.219-.077.273-.261a1.411,1.411,0,0,0,.047-.291.038.038,0,0,1,.042-.041l.148.006a.035.035,0,0,1,.036.047c-.018.1-.018.587-.018.676,0,.208.024.493.035.617a.041.041,0,0,1-.035.047l-.13.018c-.03.005-.042-.012-.048-.054-.012-.077-.047-.213-.065-.279a.28.28,0,0,0-.255-.232c-.279-.029-.689-.029-.784-.029v.368c0,.32.012.9.012,1.015.006.308.154.427.338.463a2.485,2.485,0,0,0,.44.041c.1,0,.4-.006.521-.018a1.136,1.136,0,0,0,.517-.207,5.473,5.473,0,0,0,.487-.623c.017-.03.035-.054.071-.036l.095.054c.03.018.03.036.012.083l-.314.872a.126.126,0,0,1-.13.089c-.03,0-.16-.006-.516-.012s-.932-.006-1.858-.006c-.219,0-.386.006-.5.006s-.2.012-.255.012c-.035,0-.053-.012-.053-.042v-.16c0-.024.018-.03.059-.03h.237c.273,0,.3-.041.3-.261v-1.987c0-.492-.012-1.234-.018-1.294-.024-.19-.083-.232-.3-.232H359.7c-.029,0-.047-.006-.047-.041v-.16c0-.018.012-.029.041-.029.13,0,.339.017.73.017h.261c.587,0,1.174-.006,1.762-.006.095,0,.207-.012.237-.012s.041.012.047.029c.024.083.285.9.3.955.006.024.006.041-.018.053l-.089.047c-.018.012-.042-.006-.048-.018a4.831,4.831,0,0,0-.593-.677.922.922,0,0,0-.45-.16l-1.057-.024Z" transform="translate(-314.939 -377.683)" fill="#fff"/>
      <path id="Caminho_21" data-name="Caminho 21" d="M373.286,379.748c0-.35-.178-.546-.392-.552l-.243-.006c-.03,0-.036-.024-.036-.041v-.155c0-.024.006-.035.036-.035s.077.006.166.006.22.011.422.011.326-.011.4-.011a.208.208,0,0,1,.173.077c.029.036,1.18,1.531,1.245,1.614s1.068,1.311,1.21,1.5h.024v-.706c0-.528-.006-.819-.018-1.115a7.156,7.156,0,0,0-.07-.914.318.318,0,0,0-.327-.232h-.189c-.024,0-.036-.012-.036-.041v-.155a.031.031,0,0,1,.036-.035c.082,0,.273.017.652.017.357,0,.5-.017.576-.017.042,0,.048.017.048.041v.148c0,.023-.012.041-.036.041h-.161c-.16,0-.219.1-.231.326-.024.4-.024.985-.024,1.371v2.219c0,.083-.006.143-.03.143-.07,0-.124-.071-.142-.1s-.357-.451-.724-.913c-.415-.516-.849-1.062-.885-1.1-.064-.059-1.157-1.43-1.192-1.478H373.5v1.318c0,.552.048,1.519.06,1.638.023.231.059.344.22.344h.178c.041,0,.047.018.047.053v.13c0,.036-.006.048-.047.048-.059,0-.415-.018-.575-.018-.124,0-.534.018-.593.018-.024,0-.03-.012-.03-.042V383a.032.032,0,0,1,.036-.036h.2c.173,0,.237-.071.267-.362.012-.113.024-.789.024-1.845Z" transform="translate(-323.514 -377.683)" fill="#fff"/>
      <path id="Caminho_22" data-name="Caminho 22" d="M389.844,380.9c.046,0,.682-.024.753-.036.172-.029.219-.077.273-.261a1.4,1.4,0,0,0,.046-.291.038.038,0,0,1,.042-.041l.149.006a.036.036,0,0,1,.036.047c-.018.1-.018.587-.018.676,0,.208.024.493.034.617,0,.029-.011.041-.034.047l-.132.018c-.03.005-.042-.012-.048-.054-.012-.077-.048-.213-.064-.279a.28.28,0,0,0-.255-.232c-.279-.029-.689-.029-.783-.029v.368c0,.32.012.9.012,1.015.006.308.154.427.337.463a2.494,2.494,0,0,0,.44.041c.1,0,.4-.006.521-.018a1.136,1.136,0,0,0,.516-.207,5.469,5.469,0,0,0,.488-.623c.017-.03.035-.054.07-.036l.1.054c.03.018.03.036.012.083l-.315.872a.126.126,0,0,1-.13.089c-.03,0-.161-.006-.516-.012s-.933-.006-1.858-.006c-.219,0-.386.006-.5.006s-.2.012-.255.012c-.036,0-.054-.012-.054-.042v-.16c0-.024.018-.03.06-.03H389c.273,0,.3-.041.3-.261v-1.987c0-.492-.012-1.234-.018-1.294-.024-.19-.083-.232-.3-.232h-.214c-.03,0-.048-.006-.048-.041v-.16c0-.018.012-.029.042-.029.13,0,.339.017.73.017h.261c.588,0,1.174-.006,1.762-.006.1,0,.207-.012.237-.012s.042.012.048.029c.024.083.285.9.3.955.006.024.006.041-.018.053l-.09.047c-.018.012-.042-.006-.048-.018a4.882,4.882,0,0,0-.592-.677.927.927,0,0,0-.452-.16l-1.055-.024Z" transform="translate(-334.151 -377.683)" fill="#fff"/>
      <path id="Caminho_23" data-name="Caminho 23" d="M402.491,380.519c0-.261-.01-1.1-.01-1.169,0-.113-.084-.172-.245-.172h-.343c-.024,0-.042-.012-.042-.035v-.161c0-.024.018-.035.042-.035s.106.006.243.006.339.012.622.012c.1,0,2.185.006,2.278-.023.018.1.2.9.237,1.056.006.024,0,.036-.01.041l-.107.042c-.018.006-.03-.006-.048-.042-.054-.095-.207-.314-.379-.546a.727.727,0,0,0-.416-.279c-.148-.036-1.091-.054-1.27-.054,0,.077-.006,1.27-.006,1.632v.3c.084,0,.707-.018.777-.03.131-.023.207-.077.261-.261.018-.059.042-.184.06-.29.006-.024.018-.041.042-.041l.118.006c.024,0,.036.018.036.042-.012.1-.012.593-.012.676,0,.214.018.5.03.617,0,.03-.012.042-.042.048l-.112.023c-.03.006-.036-.011-.042-.041-.006-.048-.047-.225-.065-.291a.276.276,0,0,0-.243-.231,7.681,7.681,0,0,0-.807-.036v.219c0,.179.006,1.175.006,1.264,0,.16.03.19.231.19h.291c.036,0,.054.012.054.036v.148c0,.036-.012.048-.048.048-.06,0-.3-.018-.807-.018-.463,0-.688.018-.777.018-.022,0-.034-.012-.034-.042v-.16c0-.024.018-.03.04-.03h.267c.155,0,.2-.023.209-.13s.022-.866.022-1.887Z" transform="translate(-342.842 -377.671)" fill="#fff"/>
      <path id="Caminho_24" data-name="Caminho 24" d="M414.574,378.2c0-.142-.018-1.21-.024-1.3-.012-.143-.072-.2-.3-.2h-.343c-.03,0-.048-.012-.048-.035v-.161c0-.024.018-.035.042-.035.07,0,.373.017.925.017.528,0,.718-.017.8-.017a.037.037,0,0,1,.042.041v.148c0,.03-.018.041-.047.041h-.279c-.119,0-.207.047-.207.166,0,.059-.018,1.371-.018,1.442v.457c0,.059.018,1.43.018,1.5,0,.184.088.214.279.214h.243c.03,0,.046.012.046.042v.154c0,.024-.017.036-.052.036-.072,0-.309-.018-.825-.018-.564,0-.819.018-.885.018-.029,0-.046-.012-.046-.036v-.16c0-.024.018-.036.046-.036h.333c.119,0,.243-.018.267-.172.012-.089.03-1.371.03-1.685Zm-.012-2.171a.033.033,0,0,1,.012-.048l.813-.67a.383.383,0,0,1,.243-.119.212.212,0,0,1,.214.208.272.272,0,0,1-.172.237l-1,.487a.035.035,0,0,1-.042,0Z" transform="translate(-350.783 -375.194)" fill="#fff"/>
      <path id="Caminho_25" data-name="Caminho 25" d="M423.231,382.581a2.387,2.387,0,0,1-.634-1.661,2.258,2.258,0,0,1,.6-1.573,2.069,2.069,0,0,1,1.483-.6,2.473,2.473,0,0,1,1.2.327c.076.047.106.041.118,0l.048-.172c.012-.036.024-.036.078-.036s.064.012.064.095c0,.113.119.985.149,1.151.006.03,0,.053-.024.059l-.089.024c-.03.006-.042,0-.058-.047a2.314,2.314,0,0,0-.464-.736,1.372,1.372,0,0,0-1.033-.457c-1.061,0-1.489.943-1.483,1.809a2.379,2.379,0,0,0,.57,1.525,1.317,1.317,0,0,0,1.14.5,1.813,1.813,0,0,0,1.465-.753c.018-.03.03-.036.048-.018l.076.059c.018.012.03.024.012.054a2.123,2.123,0,0,1-1.768,1A2.068,2.068,0,0,1,423.231,382.581Z" transform="translate(-356.558 -377.543)" fill="#fff"/>
      <path id="Caminho_26" data-name="Caminho 26" d="M437.627,380.691c0-.142-.016-1.21-.022-1.3-.012-.143-.072-.2-.3-.2h-.345c-.03,0-.048-.012-.048-.035v-.161c0-.024.018-.035.042-.035.072,0,.374.017.925.017.528,0,.719-.017.8-.017a.037.037,0,0,1,.042.041v.148c0,.029-.018.041-.048.041H438.4c-.118,0-.207.047-.207.166,0,.059-.018,1.371-.018,1.442v.457c0,.059.018,1.43.018,1.5,0,.184.089.214.279.214h.243c.03,0,.048.012.048.042v.154c0,.024-.018.036-.054.036-.072,0-.309-.018-.825-.018-.563,0-.817.018-.883.018-.03,0-.048-.012-.048-.036V383c0-.024.018-.036.048-.036h.333c.118,0,.243-.018.267-.172.012-.089.028-1.371.028-1.685Z" transform="translate(-366.023 -377.683)" fill="#fff"/>
      <path id="Caminho_27" data-name="Caminho 27" d="M446.524,382.742a2.073,2.073,0,0,1-.873-1.762,2.306,2.306,0,0,1,.552-1.478,1.942,1.942,0,0,1,1.608-.754,2,2,0,0,1,1.328.469,2.282,2.282,0,0,1,.813,1.774,2.164,2.164,0,0,1-.445,1.3,2.018,2.018,0,0,1-1.708.837A2.6,2.6,0,0,1,446.524,382.742Zm2.847-1.7a1.923,1.923,0,0,0-1.583-2.065,1.142,1.142,0,0,0-.938.35,2.116,2.116,0,0,0-.592,1.466,1.9,1.9,0,0,0,1.589,2.112C449.152,382.9,449.371,381.566,449.371,381.039Z" transform="translate(-371.798 -377.543)" fill="#fff"/>
      <path id="Caminho_28" data-name="Caminho 28" d="M462.5,382.818c-.072-.053-.107-.071-.137-.071s-.06.041-.094.1-.066.071-.107.071-.066-.03-.054-.1c.024-.148.084-.9.1-1.074.006-.036.018-.036.042-.036l.088.006c.024,0,.036.012.036.047a1.165,1.165,0,0,0,.213.688.992.992,0,0,0,.831.439.758.758,0,0,0,.807-.753c0-.611-.439-.837-.915-1a2.306,2.306,0,0,1-.866-.481,1.162,1.162,0,0,1-.3-.867,1.117,1.117,0,0,1,.368-.76,1.181,1.181,0,0,1,.83-.285,1.724,1.724,0,0,1,.7.148c.052.03.082.024.112-.005l.078-.071a.114.114,0,0,1,.076-.036c.03,0,.048.047.048.1,0,.207.078.813.084.943,0,.029-.006.041-.03.047l-.072.018a.025.025,0,0,1-.036-.018,1.429,1.429,0,0,0-.367-.659.83.83,0,0,0-.648-.255.673.673,0,0,0-.718.694.72.72,0,0,0,.185.516,1.863,1.863,0,0,0,.676.356,1.9,1.9,0,0,1,.955.492,1.154,1.154,0,0,1,.261.807,1.2,1.2,0,0,1-1.21,1.3A1.458,1.458,0,0,1,462.5,382.818Z" transform="translate(-382.673 -377.543)" fill="#fff"/>
    </g>
  </g>
</svg>
